<?xml version="1.0" encoding="UTF-8"?>
<svg width="38px" height="31px" viewBox="0 0 38 31" version="1.1" xmlns="http://www.w3.org/2000/svg" xmlns:xlink="http://www.w3.org/1999/xlink">
    <!-- Generator: Sketch 49.2 (51160) - http://www.bohemiancoding.com/sketch -->
    <title>Group 12</title>
    <desc>Created with Sketch.</desc>
    <defs></defs>
    <g id="Page-1" stroke="none" stroke-width="1" fill="none" fill-rule="evenodd">
        <g id="Artboard-Copy-26" transform="translate(-279.000000, -1017.000000)" stroke="#EBEBEB" stroke-width="2">
            <g id="Group-15" transform="translate(118.000000, 915.000000)">
                <g id="Group-13" transform="translate(62.000000, 50.000000)">
                    <g id="Group-12" transform="translate(100.000000, 54.000000)">
                        <polygon id="Path-5" points="0.0537109375 27.9052734 0.0537109375 11.0284217 4.22208957 6.83760945 8.57876707 11.217734 8.57876707 14.2807506 12.6282992 14.2807506 12.6282992 5.00129849 17.4609132 0.142675995 22.4399772 5.14853658 22.4399772 14.4084691 26.784849 14.4084691 26.784849 11.1456817 30.9455582 6.96258014 35.0537109 11.0928423 35.0537109 27.9063093"></polygon>
                        <path d="M13,19 L13,29" id="Path-3"></path>
                        <path d="M8,19 L8,29" id="Path-3-Copy-3"></path>
                        <path d="M18,19 L18,29" id="Path-3-Copy"></path>
                        <path d="M23,19 L23,29" id="Path-3-Copy-2"></path>
                        <path d="M28,19 L28,29" id="Path-3-Copy-4"></path>
                        <path d="M8.12451172,19.2495117 L28.1245117,19.2495117" id="Path-6"></path>
                        <circle id="Oval-2" cx="17.5" cy="8" r="1"></circle>
                    </g>
                </g>
            </g>
        </g>
    </g>
</svg>